<svg width="186" height="37" viewBox="0 0 186 37" fill="none" xmlns="http://www.w3.org/2000/svg">
<path d="M10.368 26.3333L6.408 19.7333H4.92V26.3333H1.536V9.38931H7.992C9.96 9.38931 11.456 9.86931 12.48 10.8293C13.52 11.7893 14.04 13.0533 14.04 14.6213C14.04 15.9013 13.68 16.9733 12.96 17.8373C12.256 18.7013 11.232 19.2773 9.888 19.5653L14.112 26.3333H10.368ZM4.92 17.4053H7.704C9.64 17.4053 10.608 16.5493 10.608 14.8373C10.608 14.0213 10.368 13.3893 9.888 12.9413C9.424 12.4773 8.696 12.2453 7.704 12.2453H4.92V17.4053ZM28.8291 19.1813C28.8291 19.5173 28.7891 19.9013 28.7091 20.3333H18.9651C19.0131 21.5173 19.3331 22.3893 19.9251 22.9493C20.5171 23.5093 21.2531 23.7893 22.1331 23.7893C22.9171 23.7893 23.5651 23.5973 24.0771 23.2133C24.6051 22.8293 24.9411 22.3093 25.0851 21.6533H28.6611C28.4851 22.5813 28.1091 23.4133 27.5331 24.1493C26.9571 24.8853 26.2131 25.4613 25.3011 25.8773C24.4051 26.2933 23.4051 26.5013 22.3011 26.5013C21.0051 26.5013 19.8531 26.2293 18.8451 25.6853C17.8371 25.1253 17.0531 24.3333 16.4931 23.3093C15.9331 22.2853 15.6531 21.0773 15.6531 19.6853C15.6531 18.2933 15.9331 17.0853 16.4931 16.0613C17.0531 15.0213 17.8371 14.2293 18.8451 13.6853C19.8531 13.1413 21.0051 12.8693 22.3011 12.8693C23.6131 12.8693 24.7571 13.1413 25.7331 13.6853C26.7251 14.2293 27.4851 14.9813 28.0131 15.9413C28.5571 16.8853 28.8291 17.9653 28.8291 19.1813ZM25.4211 18.8453C25.4691 17.7573 25.1811 16.9333 24.5571 16.3733C23.9491 15.8133 23.1971 15.5333 22.3011 15.5333C21.3891 15.5333 20.6211 15.8133 19.9971 16.3733C19.3731 16.9333 19.0291 17.7573 18.9651 18.8453H25.4211ZM35.8153 12.8693C37.4313 12.8693 38.7273 13.2773 39.7033 14.0933C40.6793 14.9093 41.2873 15.9973 41.5273 17.3573H38.3593C38.2313 16.7173 37.9433 16.2053 37.4953 15.8213C37.0473 15.4373 36.4633 15.2453 35.7433 15.2453C35.1673 15.2453 34.7193 15.3813 34.3993 15.6533C34.0793 15.9253 33.9193 16.2933 33.9193 16.7573C33.9193 17.1253 34.0473 17.4213 34.3033 17.6453C34.5593 17.8693 34.8793 18.0453 35.2633 18.1733C35.6473 18.3013 36.1993 18.4533 36.9193 18.6293C37.9273 18.8533 38.7433 19.0933 39.3673 19.3493C40.0073 19.5893 40.5513 19.9813 40.9993 20.5253C41.4633 21.0533 41.6953 21.7733 41.6953 22.6853C41.6953 23.8213 41.2473 24.7413 40.3513 25.4453C39.4713 26.1493 38.2793 26.5013 36.7753 26.5013C35.0473 26.5013 33.6633 26.1173 32.6233 25.3493C31.5833 24.5653 30.9513 23.4533 30.7273 22.0133H33.9673C34.0473 22.6693 34.3353 23.1893 34.8313 23.5733C35.3273 23.9413 35.9753 24.1253 36.7753 24.1253C37.3513 24.1253 37.7913 23.9893 38.0953 23.7173C38.3993 23.4293 38.5513 23.0613 38.5513 22.6133C38.5513 22.2293 38.4153 21.9173 38.1433 21.6773C37.8873 21.4373 37.5593 21.2533 37.1593 21.1253C36.7753 20.9973 36.2233 20.8453 35.5033 20.6693C34.5113 20.4453 33.7033 20.2213 33.0793 19.9973C32.4713 19.7573 31.9433 19.3813 31.4953 18.8693C31.0633 18.3573 30.8473 17.6533 30.8473 16.7573C30.8473 15.6053 31.2873 14.6693 32.1673 13.9493C33.0473 13.2293 34.2633 12.8693 35.8153 12.8693ZM51.3197 23.4293V26.3333H49.5437C48.0557 26.3333 46.9117 25.9733 46.1117 25.2533C45.3277 24.5333 44.9357 23.3333 44.9357 21.6533V15.8933H43.0877V13.0373H44.9357V9.74931H48.3197V13.0373H51.2957V15.8933H48.3197V21.7013C48.3197 22.3413 48.4477 22.7893 48.7037 23.0453C48.9597 23.3013 49.3917 23.4293 49.9997 23.4293H51.3197ZM58.9628 12.8693C60.0828 12.8693 61.0428 13.1333 61.8428 13.6613C62.6428 14.1893 63.2108 14.9013 63.5468 15.7973V13.0373H66.9068V26.3333H63.5468V23.5493C63.2108 24.4453 62.6428 25.1653 61.8428 25.7093C61.0428 26.2373 60.0828 26.5013 58.9628 26.5013C57.8428 26.5013 56.8348 26.2293 55.9388 25.6853C55.0428 25.1413 54.3388 24.3573 53.8268 23.3333C53.3308 22.2933 53.0828 21.0773 53.0828 19.6853C53.0828 18.2933 53.3308 17.0853 53.8268 16.0613C54.3388 15.0213 55.0428 14.2293 55.9388 13.6853C56.8348 13.1413 57.8428 12.8693 58.9628 12.8693ZM60.0188 15.8213C58.9628 15.8213 58.1148 16.1653 57.4748 16.8533C56.8348 17.5413 56.5148 18.4853 56.5148 19.6853C56.5148 20.8853 56.8348 21.8293 57.4748 22.5173C58.1148 23.1893 58.9628 23.5253 60.0188 23.5253C61.0428 23.5253 61.8828 23.1813 62.5388 22.4933C63.2108 21.7893 63.5468 20.8533 63.5468 19.6853C63.5468 18.5013 63.2108 17.5653 62.5388 16.8773C61.8828 16.1733 61.0428 15.8213 60.0188 15.8213ZM82.6935 13.0373V26.3333H79.3095V23.6453C78.9575 24.5413 78.3735 25.2453 77.5575 25.7573C76.7575 26.2533 75.8295 26.5013 74.7735 26.5013C73.2375 26.5013 72.0135 25.9973 71.1015 24.9893C70.1895 23.9813 69.7335 22.5733 69.7335 20.7653V13.0373H73.0935V20.3813C73.0935 21.4373 73.3655 22.2613 73.9095 22.8533C74.4535 23.4293 75.1895 23.7173 76.1175 23.7173C77.0935 23.7173 77.8695 23.4053 78.4455 22.7813C79.0215 22.1573 79.3095 21.2613 79.3095 20.0933V13.0373H82.6935ZM89.1544 15.5813C89.6504 14.7333 90.3064 14.0693 91.1224 13.5893C91.9384 13.0933 92.8504 12.8453 93.8584 12.8453V16.4693H92.8744C90.3944 16.4693 89.1544 17.6213 89.1544 19.9253V26.3333H85.7704V13.0373H89.1544V15.5813ZM100.939 12.8693C102.059 12.8693 103.019 13.1333 103.819 13.6613C104.619 14.1893 105.187 14.9013 105.523 15.7973V13.0373H108.883V26.3333H105.523V23.5493C105.187 24.4453 104.619 25.1653 103.819 25.7093C103.019 26.2373 102.059 26.5013 100.939 26.5013C99.8193 26.5013 98.8113 26.2293 97.9153 25.6853C97.0193 25.1413 96.3153 24.3573 95.8033 23.3333C95.3073 22.2933 95.0593 21.0773 95.0593 19.6853C95.0593 18.2933 95.3073 17.0853 95.8033 16.0613C96.3153 15.0213 97.0193 14.2293 97.9153 13.6853C98.8113 13.1413 99.8193 12.8693 100.939 12.8693ZM101.995 15.8213C100.939 15.8213 100.091 16.1653 99.4513 16.8533C98.8113 17.5413 98.4913 18.4853 98.4913 19.6853C98.4913 20.8853 98.8113 21.8293 99.4513 22.5173C100.091 23.1893 100.939 23.5253 101.995 23.5253C103.019 23.5253 103.859 23.1813 104.515 22.4933C105.187 21.7893 105.523 20.8533 105.523 19.6853C105.523 18.5013 105.187 17.5653 104.515 16.8773C103.859 16.1733 103.019 15.8213 101.995 15.8213ZM119.87 12.8453C121.406 12.8453 122.63 13.3493 123.542 14.3573C124.454 15.3653 124.91 16.7813 124.91 18.6053V26.3333H121.55V18.9893C121.55 17.9333 121.278 17.1173 120.734 16.5413C120.19 15.9493 119.446 15.6533 118.502 15.6533C117.542 15.6533 116.774 15.9653 116.198 16.5893C115.622 17.2133 115.334 18.1093 115.334 19.2773V26.3333H111.95V13.0373H115.334V15.7013C115.686 14.8053 116.262 14.1093 117.062 13.6133C117.878 13.1013 118.814 12.8453 119.87 12.8453ZM134.992 23.4293V26.3333H133.216C131.728 26.3333 130.584 25.9733 129.784 25.2533C129 24.5333 128.608 23.3333 128.608 21.6533V15.8933H126.76V13.0373H128.608V9.74931H131.992V13.0373H134.968V15.8933H131.992V21.7013C131.992 22.3413 132.12 22.7893 132.376 23.0453C132.632 23.3013 133.064 23.4293 133.672 23.4293H134.992Z" fill="white"/>
<path d="M186 28.3333H179.125L181.686 25.7708L177.775 21.8583L179.538 20.0958L183.45 24.0071L186 21.4583V28.3333ZM167.762 28.3333L166 26.5708L181.675 10.8833L179.125 8.33331H186V15.2083L183.45 12.6583L167.764 28.3333H167.762ZM172.463 16.5583L166 10.0958L167.762 8.33331L174.238 14.7958L172.463 16.5571V16.5583Z" fill="white"/>
</svg>
